<svg version="1.1" id="Layer_1" xmlns="http://www.w3.org/2000/svg" xmlns:xlink="http://www.w3.org/1999/xlink" x="0px" y="0px"
	 width="100%" viewBox="0 0 1024 1024" enable-background="new 0 0 1024 1024" xml:space="preserve">
<path fill="#000000" opacity="1.000000" stroke="none" 
	d="
M406.731567,212.579865 
	C416.865265,211.244507 426.548523,209.839508 436.261230,208.681107 
	C452.272644,206.771484 468.368134,205.682205 484.465576,205.104431 
	C504.765381,204.375824 525.079529,204.191345 545.399475,205.335892 
	C556.687073,205.971680 567.977295,206.531982 579.217529,207.691299 
	C623.131409,212.220520 666.716919,218.206223 706.713135,238.777222 
	C714.021179,242.535919 720.478088,247.518967 725.932617,253.731903 
	C734.386047,263.360748 734.870911,277.234314 726.918274,287.187836 
	C716.996155,299.606323 703.226440,306.398651 689.012024,312.276764 
	C662.421509,323.272736 634.486328,329.113892 606.146484,333.410156 
	C577.315247,337.780914 548.300293,340.117065 519.193604,340.079742 
	C467.014496,340.012909 415.250580,335.666351 364.783325,321.291840 
	C347.135864,316.265381 329.910583,310.084717 314.450073,299.861267 
	C308.017090,295.607361 302.075989,290.783691 297.865356,284.186523 
	C291.425629,274.096924 292.329254,262.873932 300.144867,253.754349 
	C307.818054,244.800964 317.685760,238.960007 328.241425,234.251816 
	C353.160278,223.137177 379.425751,216.762421 406.731567,212.579865 
z"/>
<path fill="#000000" opacity="1.000000" stroke="none" 
	d="
M733.342773,572.243408 
	C733.341492,598.365234 732.774658,624.040588 733.554871,649.674927 
	C734.005005,664.466675 727.637756,674.900879 716.838684,683.492798 
	C699.465454,697.315369 679.158752,705.210205 658.227783,711.644836 
	C629.541504,720.463501 600.041382,725.157959 570.270020,728.235535 
	C542.558960,731.100098 514.706665,731.296570 486.952118,730.094055 
	C444.217468,728.242493 401.908325,722.869202 361.051666,709.289429 
	C343.136261,703.334778 325.806061,696.098633 310.758911,684.343933 
	C308.142181,682.299744 305.673798,680.029053 303.347626,677.656372 
	C296.657379,670.832397 293.040985,662.760681 293.080872,653.013794 
	C293.191345,626.023499 293.102051,599.032471 293.138947,572.041748 
	C293.142059,569.778015 293.067169,567.445923 294.397064,564.541748 
	C301.995636,574.330994 311.531311,581.112793 321.885040,586.838745 
	C345.279694,599.776794 370.591553,607.220154 396.578247,612.575378 
	C423.443146,618.111450 450.593750,621.353821 478.006927,622.878845 
	C504.323578,624.342773 530.639832,624.509277 556.854858,622.457458 
	C596.468994,619.356812 635.752014,613.829956 673.520325,600.614319 
	C690.241577,594.763245 706.395081,587.699463 720.489380,576.710999 
	C724.602661,573.504089 728.283142,569.742126 732.233521,566.169983 
	C733.860046,568.148621 733.120483,570.044678 733.342773,572.243408 
z"/>
<path fill="#000000" opacity="1.000000" stroke="none" 
	d="
M589.811035,455.909302 
	C586.658264,456.558960 585.295044,455.774048 584.447571,452.763916 
	C579.684387,435.845367 567.266174,426.332123 549.529358,425.264801 
	C518.894897,423.421387 488.238525,424.749664 457.594208,424.568726 
	C451.334991,424.531738 444.962402,425.010468 438.741638,426.371826 
	C426.435486,429.065002 416.487183,435.444855 409.889008,446.127563 
	C406.829956,451.080261 404.024475,452.716248 397.985626,451.567139 
	C372.907776,446.795105 348.265289,440.818970 325.347717,429.182465 
	C315.643372,424.255005 306.559845,418.414886 299.639587,409.760071 
	C295.790192,404.945862 293.643219,399.636475 293.440155,393.298248 
	C292.575531,366.313202 293.490631,339.327148 293.159882,312.343872 
	C293.132477,310.106262 293.521454,307.863525 293.745575,305.294983 
	C321.752045,333.861603 358.081024,342.411652 394.503021,350.600891 
	C413.790039,354.937439 433.397003,357.479584 453.051117,359.451904 
	C463.959045,360.546539 474.942902,360.863800 485.882538,361.667816 
	C504.688721,363.049988 523.518127,362.571167 542.280396,361.508240 
	C568.797119,360.005981 595.253723,357.809174 621.468445,352.955109 
	C647.569031,348.122192 673.127869,341.746033 697.326660,330.676727 
	C709.652954,325.038330 721.346863,318.340759 730.347290,307.821808 
	C730.870728,307.210022 731.452271,306.558075 732.603333,306.808411 
	C733.956909,308.456482 733.307251,310.526306 733.310852,312.414856 
	C733.358887,337.411285 732.839294,362.421875 733.536499,387.398895 
	C733.924438,401.296967 727.883972,410.949860 717.536438,418.816345 
	C700.368652,431.867828 680.413147,438.730164 659.943420,444.339386 
	C637.117065,450.594238 613.791931,453.911163 589.811035,455.909302 
z"/>
<path fill="#000000" opacity="1.000000" stroke="none" 
	d="
M716.240112,448.164856 
	C727.776245,442.648834 738.184143,436.182434 746.710754,426.979370 
	C752.363770,420.877960 755.988098,413.779877 757.358337,404.476776 
	C760.818665,408.801636 762.263245,412.788086 762.277771,417.050110 
	C762.380676,447.209076 762.473877,477.369812 762.220581,507.527069 
	C762.156494,515.150818 757.961121,521.406128 752.978088,526.970032 
	C745.183594,535.673096 735.501404,541.848206 725.242554,547.140869 
	C699.732971,560.301758 672.363159,567.795288 644.373413,573.318909 
	C637.373901,574.700256 630.336609,575.892151 623.308167,577.122498 
	C621.861267,577.375793 620.359680,577.710754 618.311462,576.600159 
	C621.338440,571.501160 623.808960,566.139038 624.129822,560.101196 
	C624.208862,558.613953 624.618591,557.136536 624.621094,555.654175 
	C624.659058,532.826416 624.724243,509.998230 624.591675,487.171234 
	C624.569702,483.395996 623.639832,479.626007 623.028320,475.105896 
	C655.092163,470.011414 686.451660,462.381805 716.240112,448.164856 
z"/>
<path fill="#000000" opacity="1.000000" stroke="none" 
	d="
M314.614380,553.545776 
	C299.303741,546.679871 284.950317,539.016418 273.657837,526.743958 
	C267.000671,519.509033 263.414215,511.228241 263.538422,501.038208 
	C263.867157,474.066193 263.666931,447.087463 263.637299,420.111481 
	C263.631317,414.658051 264.872894,409.642456 268.067902,405.151306 
	C269.918152,405.524994 269.324127,407.038300 269.559875,407.975037 
	C272.380554,419.181274 279.317810,427.478760 288.146210,434.431732 
	C304.930786,447.650787 324.721130,454.714630 344.558594,461.526703 
	C361.066406,467.195435 378.059448,471.119629 395.330383,473.694733 
	C399.860962,474.370239 401.597870,476.173401 401.484894,481.102661 
	C401.118744,497.080048 401.176514,513.073425 401.394012,529.056213 
	C401.610260,544.945679 399.825409,560.939941 404.248718,577.622864 
	C372.980652,572.994812 343.297028,565.950867 314.614380,553.545776 
z"/>
<path fill="#000000" opacity="1.000000" stroke="none" 
	d="
M558.625854,470.701111 
	C554.744690,473.147125 550.756042,473.307343 546.746765,473.311554 
	C520.426880,473.339172 494.106995,473.348267 467.787109,473.378632 
	C458.995117,473.388794 457.364655,475.047668 457.353271,483.891815 
	C457.344879,490.388519 457.538483,496.892609 457.282410,503.379211 
	C457.120636,507.478058 458.553314,509.067566 462.710724,508.979309 
	C470.868317,508.806091 479.041687,508.781067 487.193237,509.093567 
	C494.788116,509.384674 497.873779,512.044678 498.394867,517.833679 
	C499.074829,525.387817 494.850922,530.119324 486.957611,530.266174 
	C478.631378,530.421143 470.298004,530.415344 461.972076,530.255127 
	C458.568787,530.189697 457.321625,531.299316 457.271271,534.833069 
	C457.143005,543.840088 457.741425,552.799316 458.380310,561.763062 
	C458.720154,566.531189 461.910034,567.661621 466.040436,567.651550 
	C479.700043,567.618225 493.359802,567.643250 507.019501,567.643982 
	C522.178467,567.644775 537.337402,567.632324 552.496338,567.647888 
	C560.480591,567.656067 563.415405,571.971313 560.594299,579.602966 
	C558.223633,586.015991 553.092041,589.177124 546.718445,589.219482 
	C513.737000,589.438599 480.751678,589.502563 447.771271,589.215454 
	C437.452637,589.125671 428.208710,578.286621 427.647552,567.192627 
	C426.266724,539.892944 426.961609,512.575378 426.914215,485.265320 
	C426.906189,480.633362 427.195557,475.903137 428.145020,471.385956 
	C430.761963,458.935791 439.724548,451.883820 454.046600,451.770782 
	C484.195129,451.532806 514.347595,451.763214 544.498230,451.874695 
	C546.973267,451.883881 549.478210,452.293823 551.914368,452.788086 
	C560.366333,454.502716 563.795593,463.214172 558.625854,470.701111 
M449.345398,510.588074 
	C444.432953,512.842529 441.705933,516.784363 442.498566,520.874207 
	C443.398560,525.517822 446.430695,527.990173 451.056580,528.615967 
	C454.969025,529.145264 457.117950,527.878235 456.688965,523.499634 
	C456.463196,521.194946 456.664490,518.849304 456.655365,516.522278 
	C456.631165,510.347748 456.627350,510.347748 449.345398,510.588074 
z"/>
<path fill="#000000" opacity="1.000000" stroke="none" 
	d="
M604.335815,523.000122 
	C604.356079,534.327759 604.426819,545.155579 604.380981,555.982910 
	C604.342957,564.954224 592.944885,572.451111 584.612488,569.102905 
	C582.638733,568.309814 582.558105,566.725037 582.567017,565.006470 
	C582.593872,559.842651 582.449890,554.671997 582.672913,549.517029 
	C582.842407,545.596130 581.286621,544.282898 577.404907,544.323608 
	C562.580933,544.479187 547.754333,544.403564 532.928772,544.366699 
	C526.748657,544.351318 525.686401,543.288086 525.667847,537.045837 
	C525.635132,526.051819 525.612549,515.056763 525.728027,504.063629 
	C525.797607,497.447357 527.471619,495.954254 534.165833,495.912903 
	C548.323547,495.825409 562.482300,495.607727 576.638367,495.722717 
	C581.229614,495.760010 582.997253,494.061523 582.698608,489.540863 
	C582.457581,485.892456 582.790466,482.208893 582.626282,478.551788 
	C582.494690,475.620178 583.772644,473.996857 586.573364,473.991669 
	C595.681458,473.974731 605.079285,475.524811 604.451355,489.022339 
	C603.933289,500.159271 604.339294,511.339203 604.335815,523.000122 
z"/>
<path fill="#000000" opacity="1.000000" stroke="none" 
	d="
M610.919189,468.875793 
	C613.135620,467.344574 615.103210,466.468414 616.782043,468.961639 
	C617.897278,470.617950 617.373291,472.151886 616.018127,473.423676 
	C614.525635,474.824432 612.749756,475.217468 611.003601,474.085022 
	C608.828979,472.674774 608.905334,470.898346 610.919189,468.875793 
z"/>
</svg>